<svg width="1030" height="128" viewBox="0 0 1030 128" fill="none" xmlns="http://www.w3.org/2000/svg">
<path d="M348 62.5C348 37.9233 367.923 18 392.5 18V18C417.077 18 437 37.9233 437 62.5V62.5C437 87.0767 417.077 107 392.5 107V107C367.923 107 348 87.0767 348 62.5V62.5Z" fill="#FAFAFA"/>
<rect x="72" y="34" width="76" height="73" fill="#FAFAFA"/>
<mask id="path-3-outside-1" maskUnits="userSpaceOnUse" x="-0.0700073" y="0.352051" width="1031" height="125" fill="black">
<rect fill="white" x="-0.0700073" y="0.352051" width="1031" height="125"/>
<path d="M59.202 15.3521C72.77 15.3521 83.7353 19.4054 92.098 27.512L80.45 41.2081C74.4767 36.4294 68.1193 34.04 61.378 34.04C58.2207 34.04 55.8313 34.5947 54.21 35.704C52.5887 36.8134 51.778 38.392 51.778 40.44C51.778 41.976 52.2047 43.2561 53.058 44.2801C53.9967 45.2187 55.49 46.1147 57.538 46.9681C59.6713 47.8214 63.0847 49.0161 67.778 50.5521C77.1647 53.5387 83.906 57.2934 88.002 61.8161C92.1833 66.3387 94.274 72.5254 94.274 80.3761C94.274 86.0934 92.738 91.1707 89.666 95.6081C86.6793 99.9601 82.37 103.373 76.738 105.848C71.106 108.323 64.45 109.56 56.77 109.56C48.9193 109.56 42.0073 108.323 36.034 105.848C30.0607 103.373 25.026 100.131 20.93 96.1201L33.858 81.912C40.5993 87.7147 47.8953 90.6161 55.746 90.6161C59.4153 90.6161 62.1887 89.8907 64.066 88.44C65.9433 86.904 66.882 84.9414 66.882 82.552C66.882 80.76 66.4553 79.2667 65.602 78.0721C64.834 76.8774 63.426 75.7681 61.378 74.7441C59.33 73.7201 56.3433 72.6107 52.418 71.416C42.0927 68.1734 34.882 64.2907 30.786 59.7681C26.69 55.1601 24.642 49.4427 24.642 42.6161C24.642 37.0694 26.1353 32.248 29.122 28.152C32.1087 24.056 36.2047 20.8987 41.41 18.68C46.7007 16.4614 52.6313 15.3521 59.202 15.3521Z"/>
<path d="M166.482 17.912L163.794 37.624H143.57V107H117.202V37.624H95.57V17.912H166.482Z"/>
<path d="M212.904 107L209.448 89.7201H188.328L185 107H157.48L183.464 17.912H214.952L240.808 107H212.904ZM192.04 71.2881H205.736L198.824 36.344L192.04 71.2881Z"/>
<path d="M303.982 17.912L301.294 37.624H281.07V107H254.702V37.624H233.07V17.912H303.982Z"/>
<path d="M368.555 17.912L365.867 36.216H336.427V52.8561H362.283V70.6481H336.427V88.5681H367.915V107H310.059V17.912H368.555Z"/>
<path d="M451.118 17.912C465.454 17.912 476.931 21.112 485.55 27.512C494.169 33.8267 498.478 45.3467 498.478 62.0721C498.478 78.5414 494.339 90.1467 486.062 96.8881C477.785 103.629 466.649 107 452.654 107H422.574V17.912H451.118ZM448.942 36.4721V88.44H454.19C458.286 88.44 461.571 87.6294 464.046 86.0081C466.521 84.3867 468.355 81.6987 469.55 77.9441C470.745 74.1041 471.342 68.8134 471.342 62.0721C471.342 55.4161 470.702 50.2534 469.422 46.584C468.227 42.8294 466.393 40.2267 463.918 38.776C461.443 37.2401 458.243 36.4721 454.318 36.4721H448.942Z"/>
<path d="M566.32 17.912L563.632 36.216H534.192V52.8561H560.048V70.6481H534.192V88.5681H565.68V107H507.824V17.912H566.32Z"/>
<path d="M607.092 15.3521C620.66 15.3521 631.625 19.4054 639.988 27.512L628.34 41.2081C622.367 36.4294 616.009 34.04 609.268 34.04C606.111 34.04 603.721 34.5947 602.1 35.704C600.479 36.8134 599.668 38.392 599.668 40.44C599.668 41.976 600.095 43.2561 600.948 44.2801C601.887 45.2187 603.38 46.1147 605.428 46.9681C607.561 47.8214 610.975 49.0161 615.668 50.5521C625.055 53.5387 631.796 57.2934 635.892 61.8161C640.073 66.3387 642.164 72.5254 642.164 80.3761C642.164 86.0934 640.628 91.1707 637.556 95.6081C634.569 99.9601 630.26 103.373 624.628 105.848C618.996 108.323 612.34 109.56 604.66 109.56C596.809 109.56 589.897 108.323 583.924 105.848C577.951 103.373 572.916 100.131 568.82 96.1201L581.748 81.912C588.489 87.7147 595.785 90.6161 603.636 90.6161C607.305 90.6161 610.079 89.8907 611.956 88.44C613.833 86.904 614.772 84.9414 614.772 82.552C614.772 80.76 614.345 79.2667 613.492 78.0721C612.724 76.8774 611.316 75.7681 609.268 74.7441C607.22 73.7201 604.233 72.6107 600.308 71.416C589.983 68.1734 582.772 64.2907 578.676 59.7681C574.58 55.1601 572.532 49.4427 572.532 42.6161C572.532 37.0694 574.025 32.248 577.012 28.152C579.999 24.056 584.095 20.8987 589.3 18.68C594.591 16.4614 600.521 15.3521 607.092 15.3521Z"/>
<path d="M677.192 17.912V107H650.824V17.912H677.192Z"/>
<path d="M731.433 15.3521C737.833 15.3521 743.678 16.4187 748.969 18.552C754.345 20.6854 759.038 23.5014 763.049 27.0001L750.249 40.312C747.092 38.008 744.233 36.3441 741.673 35.3201C739.113 34.2961 736.212 33.784 732.969 33.784C726.74 33.784 721.961 36.1734 718.633 40.952C715.305 45.6454 713.641 52.8134 713.641 62.4561C713.641 69.7094 714.153 75.4267 715.177 79.608C716.201 83.704 717.78 86.6054 719.913 88.312C722.132 90.0187 725.033 90.8721 728.617 90.8721C731.774 90.8721 734.804 90.1467 737.705 88.6961V72.4401H728.745L726.313 54.6481H763.049V99.3201C758.356 102.563 752.98 105.08 746.921 106.872C740.862 108.664 735.017 109.56 729.385 109.56C714.793 109.56 703.998 105.592 697.001 97.6561C690.004 89.6347 686.505 77.8587 686.505 62.3281C686.505 52.5147 688.425 44.0667 692.265 36.984C696.105 29.9014 701.438 24.5254 708.265 20.856C715.092 17.1867 722.814 15.3521 731.433 15.3521Z"/>
<path d="M846.644 107H813.62L794.164 41.9761L794.548 44.792C795.487 51.0214 796.212 56.7387 796.724 61.944C797.321 67.0641 797.62 72.8667 797.62 79.3521V107H774.324V17.912H806.708L826.932 83.1921L826.548 80.5041C825.524 74.6161 824.713 69.1547 824.116 64.1201C823.604 59.0001 823.348 53.1121 823.348 46.4561V17.912H846.644V107Z"/>
<path d="M917.445 17.912L914.757 36.216H885.317V52.8561H911.173V70.6481H885.317V88.5681H916.805V107H858.949V17.912H917.445Z"/>
<path d="M957.931 75.2561H953.067V107H926.699V17.912H959.339C972.224 17.912 981.824 20.216 988.139 24.8241C994.454 29.3467 997.611 36.472 997.611 46.2001C997.611 51.7467 996.374 56.3547 993.899 60.0241C991.424 63.6934 987.414 67.1494 981.867 70.3921L1003.63 107H974.443L957.931 75.2561ZM953.067 57.5921H959.979C963.563 57.5921 966.251 56.6534 968.043 54.7761C969.835 52.8987 970.731 50.0401 970.731 46.2001C970.731 39.3734 966.72 35.9601 958.699 35.9601H953.067V57.5921Z"/>
</mask>
<path d="M59.202 15.3521C72.77 15.3521 83.7353 19.4054 92.098 27.512L80.45 41.2081C74.4767 36.4294 68.1193 34.04 61.378 34.04C58.2207 34.04 55.8313 34.5947 54.21 35.704C52.5887 36.8134 51.778 38.392 51.778 40.44C51.778 41.976 52.2047 43.2561 53.058 44.2801C53.9967 45.2187 55.49 46.1147 57.538 46.9681C59.6713 47.8214 63.0847 49.0161 67.778 50.5521C77.1647 53.5387 83.906 57.2934 88.002 61.8161C92.1833 66.3387 94.274 72.5254 94.274 80.3761C94.274 86.0934 92.738 91.1707 89.666 95.6081C86.6793 99.9601 82.37 103.373 76.738 105.848C71.106 108.323 64.45 109.56 56.77 109.56C48.9193 109.56 42.0073 108.323 36.034 105.848C30.0607 103.373 25.026 100.131 20.93 96.1201L33.858 81.912C40.5993 87.7147 47.8953 90.6161 55.746 90.6161C59.4153 90.6161 62.1887 89.8907 64.066 88.44C65.9433 86.904 66.882 84.9414 66.882 82.552C66.882 80.76 66.4553 79.2667 65.602 78.0721C64.834 76.8774 63.426 75.7681 61.378 74.7441C59.33 73.7201 56.3433 72.6107 52.418 71.416C42.0927 68.1734 34.882 64.2907 30.786 59.7681C26.69 55.1601 24.642 49.4427 24.642 42.6161C24.642 37.0694 26.1353 32.248 29.122 28.152C32.1087 24.056 36.2047 20.8987 41.41 18.68C46.7007 16.4614 52.6313 15.3521 59.202 15.3521Z" fill="black"/>
<path d="M166.482 17.912L163.794 37.624H143.57V107H117.202V37.624H95.57V17.912H166.482Z" fill="black"/>
<path d="M212.904 107L209.448 89.7201H188.328L185 107H157.48L183.464 17.912H214.952L240.808 107H212.904ZM192.04 71.2881H205.736L198.824 36.344L192.04 71.2881Z" fill="black"/>
<path d="M303.982 17.912L301.294 37.624H281.07V107H254.702V37.624H233.07V17.912H303.982Z" fill="black"/>
<path d="M368.555 17.912L365.867 36.216H336.427V52.8561H362.283V70.6481H336.427V88.5681H367.915V107H310.059V17.912H368.555Z" fill="black"/>
<path d="M451.118 17.912C465.454 17.912 476.931 21.112 485.55 27.512C494.169 33.8267 498.478 45.3467 498.478 62.0721C498.478 78.5414 494.339 90.1467 486.062 96.8881C477.785 103.629 466.649 107 452.654 107H422.574V17.912H451.118ZM448.942 36.4721V88.44H454.19C458.286 88.44 461.571 87.6294 464.046 86.0081C466.521 84.3867 468.355 81.6987 469.55 77.9441C470.745 74.1041 471.342 68.8134 471.342 62.0721C471.342 55.4161 470.702 50.2534 469.422 46.584C468.227 42.8294 466.393 40.2267 463.918 38.776C461.443 37.2401 458.243 36.4721 454.318 36.4721H448.942Z" fill="black"/>
<path d="M566.32 17.912L563.632 36.216H534.192V52.8561H560.048V70.6481H534.192V88.5681H565.68V107H507.824V17.912H566.32Z" fill="black"/>
<path d="M607.092 15.3521C620.66 15.3521 631.625 19.4054 639.988 27.512L628.34 41.2081C622.367 36.4294 616.009 34.04 609.268 34.04C606.111 34.04 603.721 34.5947 602.1 35.704C600.479 36.8134 599.668 38.392 599.668 40.44C599.668 41.976 600.095 43.2561 600.948 44.2801C601.887 45.2187 603.38 46.1147 605.428 46.9681C607.561 47.8214 610.975 49.0161 615.668 50.5521C625.055 53.5387 631.796 57.2934 635.892 61.8161C640.073 66.3387 642.164 72.5254 642.164 80.3761C642.164 86.0934 640.628 91.1707 637.556 95.6081C634.569 99.9601 630.26 103.373 624.628 105.848C618.996 108.323 612.34 109.56 604.66 109.56C596.809 109.56 589.897 108.323 583.924 105.848C577.951 103.373 572.916 100.131 568.82 96.1201L581.748 81.912C588.489 87.7147 595.785 90.6161 603.636 90.6161C607.305 90.6161 610.079 89.8907 611.956 88.44C613.833 86.904 614.772 84.9414 614.772 82.552C614.772 80.76 614.345 79.2667 613.492 78.0721C612.724 76.8774 611.316 75.7681 609.268 74.7441C607.22 73.7201 604.233 72.6107 600.308 71.416C589.983 68.1734 582.772 64.2907 578.676 59.7681C574.58 55.1601 572.532 49.4427 572.532 42.6161C572.532 37.0694 574.025 32.248 577.012 28.152C579.999 24.056 584.095 20.8987 589.3 18.68C594.591 16.4614 600.521 15.3521 607.092 15.3521Z" fill="black"/>
<path d="M677.192 17.912V107H650.824V17.912H677.192Z" fill="black"/>
<path d="M731.433 15.3521C737.833 15.3521 743.678 16.4187 748.969 18.552C754.345 20.6854 759.038 23.5014 763.049 27.0001L750.249 40.312C747.092 38.008 744.233 36.3441 741.673 35.3201C739.113 34.2961 736.212 33.784 732.969 33.784C726.74 33.784 721.961 36.1734 718.633 40.952C715.305 45.6454 713.641 52.8134 713.641 62.4561C713.641 69.7094 714.153 75.4267 715.177 79.608C716.201 83.704 717.78 86.6054 719.913 88.312C722.132 90.0187 725.033 90.8721 728.617 90.8721C731.774 90.8721 734.804 90.1467 737.705 88.6961V72.4401H728.745L726.313 54.6481H763.049V99.3201C758.356 102.563 752.98 105.08 746.921 106.872C740.862 108.664 735.017 109.56 729.385 109.56C714.793 109.56 703.998 105.592 697.001 97.6561C690.004 89.6347 686.505 77.8587 686.505 62.3281C686.505 52.5147 688.425 44.0667 692.265 36.984C696.105 29.9014 701.438 24.5254 708.265 20.856C715.092 17.1867 722.814 15.3521 731.433 15.3521Z" fill="black"/>
<path d="M846.644 107H813.62L794.164 41.9761L794.548 44.792C795.487 51.0214 796.212 56.7387 796.724 61.944C797.321 67.0641 797.62 72.8667 797.62 79.3521V107H774.324V17.912H806.708L826.932 83.1921L826.548 80.5041C825.524 74.6161 824.713 69.1547 824.116 64.1201C823.604 59.0001 823.348 53.1121 823.348 46.4561V17.912H846.644V107Z" fill="black"/>
<path d="M917.445 17.912L914.757 36.216H885.317V52.8561H911.173V70.6481H885.317V88.5681H916.805V107H858.949V17.912H917.445Z" fill="black"/>
<path d="M957.931 75.2561H953.067V107H926.699V17.912H959.339C972.224 17.912 981.824 20.216 988.139 24.8241C994.454 29.3467 997.611 36.472 997.611 46.2001C997.611 51.7467 996.374 56.3547 993.899 60.0241C991.424 63.6934 987.414 67.1494 981.867 70.3921L1003.63 107H974.443L957.931 75.2561ZM953.067 57.5921H959.979C963.563 57.5921 966.251 56.6534 968.043 54.7761C969.835 52.8987 970.731 50.0401 970.731 46.2001C970.731 39.3734 966.72 35.9601 958.699 35.9601H953.067V57.5921Z" fill="black"/>
<path d="M59.202 15.3521C72.77 15.3521 83.7353 19.4054 92.098 27.512L80.45 41.2081C74.4767 36.4294 68.1193 34.04 61.378 34.04C58.2207 34.04 55.8313 34.5947 54.21 35.704C52.5887 36.8134 51.778 38.392 51.778 40.44C51.778 41.976 52.2047 43.2561 53.058 44.2801C53.9967 45.2187 55.49 46.1147 57.538 46.9681C59.6713 47.8214 63.0847 49.0161 67.778 50.5521C77.1647 53.5387 83.906 57.2934 88.002 61.8161C92.1833 66.3387 94.274 72.5254 94.274 80.3761C94.274 86.0934 92.738 91.1707 89.666 95.6081C86.6793 99.9601 82.37 103.373 76.738 105.848C71.106 108.323 64.45 109.56 56.77 109.56C48.9193 109.56 42.0073 108.323 36.034 105.848C30.0607 103.373 25.026 100.131 20.93 96.1201L33.858 81.912C40.5993 87.7147 47.8953 90.6161 55.746 90.6161C59.4153 90.6161 62.1887 89.8907 64.066 88.44C65.9433 86.904 66.882 84.9414 66.882 82.552C66.882 80.76 66.4553 79.2667 65.602 78.0721C64.834 76.8774 63.426 75.7681 61.378 74.7441C59.33 73.7201 56.3433 72.6107 52.418 71.416C42.0927 68.1734 34.882 64.2907 30.786 59.7681C26.69 55.1601 24.642 49.4427 24.642 42.6161C24.642 37.0694 26.1353 32.248 29.122 28.152C32.1087 24.056 36.2047 20.8987 41.41 18.68C46.7007 16.4614 52.6313 15.3521 59.202 15.3521Z" stroke="#FAFAFA" stroke-width="30" mask="url(#path-3-outside-1)"/>
<path d="M166.482 17.912L163.794 37.624H143.57V107H117.202V37.624H95.57V17.912H166.482Z" stroke="#FAFAFA" stroke-width="30" mask="url(#path-3-outside-1)"/>
<path d="M212.904 107L209.448 89.7201H188.328L185 107H157.48L183.464 17.912H214.952L240.808 107H212.904ZM192.04 71.2881H205.736L198.824 36.344L192.04 71.2881Z" stroke="#FAFAFA" stroke-width="30" mask="url(#path-3-outside-1)"/>
<path d="M303.982 17.912L301.294 37.624H281.07V107H254.702V37.624H233.07V17.912H303.982Z" stroke="#FAFAFA" stroke-width="30" mask="url(#path-3-outside-1)"/>
<path d="M368.555 17.912L365.867 36.216H336.427V52.8561H362.283V70.6481H336.427V88.5681H367.915V107H310.059V17.912H368.555Z" stroke="#FAFAFA" stroke-width="30" mask="url(#path-3-outside-1)"/>
<path d="M451.118 17.912C465.454 17.912 476.931 21.112 485.55 27.512C494.169 33.8267 498.478 45.3467 498.478 62.0721C498.478 78.5414 494.339 90.1467 486.062 96.8881C477.785 103.629 466.649 107 452.654 107H422.574V17.912H451.118ZM448.942 36.4721V88.44H454.19C458.286 88.44 461.571 87.6294 464.046 86.0081C466.521 84.3867 468.355 81.6987 469.55 77.9441C470.745 74.1041 471.342 68.8134 471.342 62.0721C471.342 55.4161 470.702 50.2534 469.422 46.584C468.227 42.8294 466.393 40.2267 463.918 38.776C461.443 37.2401 458.243 36.4721 454.318 36.4721H448.942Z" stroke="#FAFAFA" stroke-width="30" mask="url(#path-3-outside-1)"/>
<path d="M566.32 17.912L563.632 36.216H534.192V52.8561H560.048V70.6481H534.192V88.5681H565.68V107H507.824V17.912H566.32Z" stroke="#FAFAFA" stroke-width="30" mask="url(#path-3-outside-1)"/>
<path d="M607.092 15.3521C620.66 15.3521 631.625 19.4054 639.988 27.512L628.34 41.2081C622.367 36.4294 616.009 34.04 609.268 34.04C606.111 34.04 603.721 34.5947 602.1 35.704C600.479 36.8134 599.668 38.392 599.668 40.44C599.668 41.976 600.095 43.2561 600.948 44.2801C601.887 45.2187 603.38 46.1147 605.428 46.9681C607.561 47.8214 610.975 49.0161 615.668 50.5521C625.055 53.5387 631.796 57.2934 635.892 61.8161C640.073 66.3387 642.164 72.5254 642.164 80.3761C642.164 86.0934 640.628 91.1707 637.556 95.6081C634.569 99.9601 630.26 103.373 624.628 105.848C618.996 108.323 612.34 109.56 604.66 109.56C596.809 109.56 589.897 108.323 583.924 105.848C577.951 103.373 572.916 100.131 568.82 96.1201L581.748 81.912C588.489 87.7147 595.785 90.6161 603.636 90.6161C607.305 90.6161 610.079 89.8907 611.956 88.44C613.833 86.904 614.772 84.9414 614.772 82.552C614.772 80.76 614.345 79.2667 613.492 78.0721C612.724 76.8774 611.316 75.7681 609.268 74.7441C607.22 73.7201 604.233 72.6107 600.308 71.416C589.983 68.1734 582.772 64.2907 578.676 59.7681C574.58 55.1601 572.532 49.4427 572.532 42.6161C572.532 37.0694 574.025 32.248 577.012 28.152C579.999 24.056 584.095 20.8987 589.3 18.68C594.591 16.4614 600.521 15.3521 607.092 15.3521Z" stroke="#FAFAFA" stroke-width="30" mask="url(#path-3-outside-1)"/>
<path d="M677.192 17.912V107H650.824V17.912H677.192Z" stroke="#FAFAFA" stroke-width="30" mask="url(#path-3-outside-1)"/>
<path d="M731.433 15.3521C737.833 15.3521 743.678 16.4187 748.969 18.552C754.345 20.6854 759.038 23.5014 763.049 27.0001L750.249 40.312C747.092 38.008 744.233 36.3441 741.673 35.3201C739.113 34.2961 736.212 33.784 732.969 33.784C726.74 33.784 721.961 36.1734 718.633 40.952C715.305 45.6454 713.641 52.8134 713.641 62.4561C713.641 69.7094 714.153 75.4267 715.177 79.608C716.201 83.704 717.78 86.6054 719.913 88.312C722.132 90.0187 725.033 90.8721 728.617 90.8721C731.774 90.8721 734.804 90.1467 737.705 88.6961V72.4401H728.745L726.313 54.6481H763.049V99.3201C758.356 102.563 752.98 105.08 746.921 106.872C740.862 108.664 735.017 109.56 729.385 109.56C714.793 109.56 703.998 105.592 697.001 97.6561C690.004 89.6347 686.505 77.8587 686.505 62.3281C686.505 52.5147 688.425 44.0667 692.265 36.984C696.105 29.9014 701.438 24.5254 708.265 20.856C715.092 17.1867 722.814 15.3521 731.433 15.3521Z" stroke="#FAFAFA" stroke-width="30" mask="url(#path-3-outside-1)"/>
<path d="M846.644 107H813.62L794.164 41.9761L794.548 44.792C795.487 51.0214 796.212 56.7387 796.724 61.944C797.321 67.0641 797.62 72.8667 797.62 79.3521V107H774.324V17.912H806.708L826.932 83.1921L826.548 80.5041C825.524 74.6161 824.713 69.1547 824.116 64.1201C823.604 59.0001 823.348 53.1121 823.348 46.4561V17.912H846.644V107Z" stroke="#FAFAFA" stroke-width="30" mask="url(#path-3-outside-1)"/>
<path d="M917.445 17.912L914.757 36.216H885.317V52.8561H911.173V70.6481H885.317V88.5681H916.805V107H858.949V17.912H917.445Z" stroke="#FAFAFA" stroke-width="30" mask="url(#path-3-outside-1)"/>
<path d="M957.931 75.2561H953.067V107H926.699V17.912H959.339C972.224 17.912 981.824 20.216 988.139 24.8241C994.454 29.3467 997.611 36.472 997.611 46.2001C997.611 51.7467 996.374 56.3547 993.899 60.0241C991.424 63.6934 987.414 67.1494 981.867 70.3921L1003.63 107H974.443L957.931 75.2561ZM953.067 57.5921H959.979C963.563 57.5921 966.251 56.6534 968.043 54.7761C969.835 52.8987 970.731 50.0401 970.731 46.2001C970.731 39.3734 966.72 35.9601 958.699 35.9601H953.067V57.5921Z" stroke="#FAFAFA" stroke-width="30" mask="url(#path-3-outside-1)"/>
<path d="M384 61.7501C384 56.8348 387.985 52.8501 392.9 52.8501V52.8501C397.815 52.8501 401.8 56.8348 401.8 61.7501V61.7501C401.8 66.6654 397.815 70.6501 392.9 70.6501V70.6501C387.985 70.6501 384 66.6654 384 61.7501V61.7501Z" fill="black"/>
</svg>
