<?xml version="1.0" standalone="no"?>
<!DOCTYPE svg PUBLIC "-//W3C//DTD SVG 20010904//EN"
 "http://www.w3.org/TR/2001/REC-SVG-20010904/DTD/svg10.dtd">
<svg version="1.0" xmlns="http://www.w3.org/2000/svg"
 width="512.000000pt" height="512.000000pt" viewBox="0 0 512.000000 512.000000"
 preserveAspectRatio="xMidYMid meet">
<metadata>
Created by potrace 1.11, written by Peter Selinger 2001-2013
</metadata>
<g transform="translate(0.000000,512.000000) scale(0.100000,-0.100000)"
fill="#000000" stroke="none">
<path d="M2369 5116 c-2 -2 -34 -6 -70 -10 -330 -31 -680 -141 -984 -310 -523
-290 -941 -774 -1150 -1332 -37 -97 -102 -315 -109 -364 -3 -14 -9 -50 -15
-80 -29 -156 -36 -244 -35 -470 0 -113 4 -234 8 -270 5 -36 10 -72 11 -80 8
-66 32 -184 57 -278 144 -555 456 -1030 909 -1384 333 -259 758 -445 1154
-504 22 -3 51 -8 65 -10 115 -20 472 -26 610 -11 116 13 118 13 235 36 669
128 1271 535 1651 1116 68 103 66 101 144 256 103 204 183 433 215 618 3 19 8
37 10 40 3 6 8 33 21 123 33 237 24 634 -21 838 -3 14 -10 46 -15 71 -23 115
-94 335 -148 461 -199 456 -507 827 -924 1112 -53 36 -100 66 -104 66 -4 0
-15 6 -23 14 -20 18 -257 137 -331 166 -154 62 -408 136 -498 145 -18 2 -36 6
-40 8 -4 3 -36 8 -72 12 -36 4 -74 9 -85 12 -23 5 -461 14 -466 9z"/>
</g>
</svg>
