<svg width="89" height="89" viewBox="0 0 89 89" fill="none" xmlns="http://www.w3.org/2000/svg">
<path fill-rule="evenodd" clip-rule="evenodd" d="M44.5 0C19.9233 0 0 19.9233 0 44.5C0 69.0767 19.9233 89 44.5 89C69.0767 89 89 69.0767 89 44.5C89 19.9233 69.0767 0 44.5 0ZM44.5 74C28.2076 74 15 60.7924 15 44.5C15 28.2076 28.2076 15 44.5 15C60.7924 15 74 28.2076 74 44.5C74 60.7924 60.7924 74 44.5 74Z" fill="white"/>
<path d="M36 43.7501C36 38.8348 39.9847 34.8501 44.9 34.8501C49.8153 34.8501 53.8 38.8348 53.8 43.7501C53.8 48.6654 49.8153 52.6501 44.9 52.6501C39.9847 52.6501 36 48.6654 36 43.7501Z" fill="white"/>
</svg>
