<?xml version="1.0" encoding="iso-8859-1"?>
<!-- Generator: Adobe Illustrator 19.0.0, SVG Export Plug-In . SVG Version: 6.00 Build 0)  -->
<svg version="1.1" id="Capa_1" xmlns="http://www.w3.org/2000/svg" xmlns:xlink="http://www.w3.org/1999/xlink" x="0px" y="0px"
	 viewBox="0 0 58 58" style="enable-background:new 0 0 58 58;" xml:space="preserve">
<g>
	<path style="fill:#694F87;" d="M23,38.5c-0.553,0-1,0.448-1,1v2c0,0.552,0.447,1,1,1s1-0.448,1-1v-2C24,38.948,23.553,38.5,23,38.5
		z"/>
	<path style="fill:#694F87;" d="M35,38.5c-0.553,0-1,0.448-1,1v2c0,0.552,0.447,1,1,1s1-0.448,1-1v-2C36,38.948,35.553,38.5,35,38.5
		z"/>
</g>
<path style="fill:#556080;" d="M53,16.5H41v4h-4v3h2v4h-2v3h4v5h-2v4h17v-4C56,35.365,53,16.5,53,16.5z"/>
<path style="fill:#556080;" d="M5,16.5h12v4h4v3h-2v4h2v3h-4v5h2v4H2v-4C2,35.365,5,16.5,5,16.5z"/>
<rect x="7" y="11.5" style="fill:#38454F;" width="8" height="5"/>
<path style="fill:#556080;" d="M17.339,11.5H4.661C4.296,11.5,4,11.204,4,10.839V3.161C4,2.796,4.296,2.5,4.661,2.5h12.678
	C17.704,2.5,18,2.796,18,3.161v7.678C18,11.204,17.704,11.5,17.339,11.5z"/>
<rect x="4" y="6.5" style="fill:#38454F;" width="14" height="2"/>
<rect x="43" y="11.5" style="fill:#38454F;" width="8" height="5"/>
<path style="fill:#556080;" d="M40.661,11.5h12.678c0.365,0,0.661-0.296,0.661-0.661V3.161C54,2.796,53.704,2.5,53.339,2.5H40.661
	C40.296,2.5,40,2.796,40,3.161v7.678C40,11.204,40.296,11.5,40.661,11.5z"/>
<rect x="40" y="6.5" style="fill:#38454F;" width="14" height="2"/>
<rect x="19" y="23.5" style="fill:#7383BF;" width="20" height="4"/>
<rect x="19" y="35.5" style="fill:#7383BF;" width="20" height="4"/>
<rect x="27" y="27.5" style="fill:#694F87;" width="4" height="8"/>
<path style="fill:#694F87;" d="M27,39.5v3.392c0,0.336,0.272,0.608,0.608,0.608h2.785c0.336,0,0.608-0.272,0.608-0.608V39.5H27z"/>
<polygon style="fill:#38454F;" points="2.947,29.5 11,29.5 11,22.5 4.053,22.5 "/>
<polygon style="fill:#38454F;" points="53.947,22.5 47,22.5 47,29.5 55.053,29.5 "/>
<rect x="3" y="39.5" style="fill:#38454F;" width="15" height="6"/>
<rect y="45.5" style="fill:#556080;" width="21" height="10"/>
<rect x="40" y="39.5" style="fill:#38454F;" width="15" height="6"/>
<rect x="37" y="45.5" style="fill:#556080;" width="21" height="10"/>
<path style="fill:#694F87;" d="M29,13.5c-2.209,0-4,1.791-4,4v2c0,0.552,0.448,1,1,1s1,0.448,1,1v2h4v-2c0-0.552,0.448-1,1-1
	s1-0.448,1-1v-2C33,15.291,31.209,13.5,29,13.5z M30,19.5c0,0.552-0.447,1-1,1s-1-0.448-1-1v-3c0-0.552,0.447-1,1-1s1,0.448,1,1
	V19.5z"/>
<path style="fill:#7383BF;" d="M6,4.5c0,0.552,0.447,1,1,1s1-0.448,1-1v-2H6V4.5z"/>
<path style="fill:#7383BF;" d="M10,4.5c0,0.552,0.447,1,1,1s1-0.448,1-1v-2h-2V4.5z"/>
<path style="fill:#7383BF;" d="M14,4.5c0,0.552,0.447,1,1,1s1-0.448,1-1v-2h-2V4.5z"/>
<path style="fill:#7383BF;" d="M42,4.5c0,0.552,0.447,1,1,1s1-0.448,1-1v-2h-2V4.5z"/>
<path style="fill:#7383BF;" d="M46,4.5c0,0.552,0.447,1,1,1s1-0.448,1-1v-2h-2V4.5z"/>
<path style="fill:#7383BF;" d="M50,4.5c0,0.552,0.447,1,1,1s1-0.448,1-1v-2h-2V4.5z"/>
<g>
</g>
<g>
</g>
<g>
</g>
<g>
</g>
<g>
</g>
<g>
</g>
<g>
</g>
<g>
</g>
<g>
</g>
<g>
</g>
<g>
</g>
<g>
</g>
<g>
</g>
<g>
</g>
<g>
</g>
</svg>
