<?xml version="1.0" encoding="iso-8859-1"?>
<!-- Generator: Adobe Illustrator 19.0.0, SVG Export Plug-In . SVG Version: 6.00 Build 0)  -->
<svg version="1.1" id="Capa_1" xmlns="http://www.w3.org/2000/svg" xmlns:xlink="http://www.w3.org/1999/xlink" x="0px" y="0px"
	 viewBox="0 0 60 60" style="enable-background:new 0 0 60 60;" xml:space="preserve">
<path style="fill:#E4C05C;stroke:#556080;stroke-width:2;stroke-miterlimit:10;" d="M30,59C17.333,59,7.027,48.694,7.027,36.027
	S17.333,13.054,30,13.054s22.973,10.306,22.973,22.973S42.667,59,30,59z"/>
<path style="fill:#FFFFFF;" d="M27,34.027c-0.256,0-0.512-0.098-0.707-0.293l-3-3c-0.391-0.391-0.391-1.023,0-1.414
	s1.023-0.391,1.414,0l3,3c0.391,0.391,0.391,1.023,0,1.414C27.512,33.929,27.256,34.027,27,34.027z"/>
<path style="fill:#FFFFFF;" d="M33,34.027c-0.256,0-0.512-0.098-0.707-0.293c-0.391-0.391-0.391-1.023,0-1.414l3-3
	c0.391-0.391,1.023-0.391,1.414,0s0.391,1.023,0,1.414l-3,3C33.512,33.929,33.256,34.027,33,34.027z"/>
<path style="fill:#FFFFFF;" d="M24,43.027c-0.256,0-0.512-0.098-0.707-0.293c-0.391-0.391-0.391-1.023,0-1.414l3-3
	c0.391-0.391,1.023-0.391,1.414,0s0.391,1.023,0,1.414l-3,3C24.512,42.929,24.256,43.027,24,43.027z"/>
<path style="fill:#FFFFFF;" d="M36,43.027c-0.256,0-0.512-0.098-0.707-0.293l-3-3c-0.391-0.391-0.391-1.023,0-1.414
	s1.023-0.391,1.414,0l3,3c0.391,0.391,0.391,1.023,0,1.414C36.512,42.929,36.256,43.027,36,43.027z"/>
<path style="fill:#556080;" d="M32.908,33.101c-0.119-2.044-1.775-8.075-2.908-8.075s-2.82,6.044-2.929,8.116
	c-2.011,0.128-8.073,1.753-8.073,2.886c0,1.133,6.085,2.781,8.114,2.901c0.128,2.018,1.755,8.097,2.888,8.097s2.779-6.068,2.9-8.089
	c2.052-0.118,8.098-1.777,8.098-2.909C40.998,34.896,34.971,33.212,32.908,33.101z"/>
<line style="fill:none;stroke:#1081E0;stroke-width:2;stroke-linecap:round;stroke-linejoin:round;stroke-miterlimit:10;" x1="17.01" y1="43.527" x2="15.278" y2="44.527"/>
<g>
	<path style="fill:#F7E6A1;" d="M30,17.027c-0.553,0-1,0.448-1,1v3c0,0.552,0.447,1,1,1s1-0.448,1-1v-3
		C31,17.475,30.553,17.027,30,17.027z"/>
	<path style="fill:#F7E6A1;" d="M30,50.027c-0.553,0-1,0.448-1,1v3c0,0.552,0.447,1,1,1s1-0.448,1-1v-3
		C31,50.475,30.553,50.027,30,50.027z"/>
	<path style="fill:#F7E6A1;" d="M48,35.027h-3c-0.553,0-1,0.448-1,1s0.447,1,1,1h3c0.553,0,1-0.448,1-1S48.553,35.027,48,35.027z"/>
	<path style="fill:#F7E6A1;" d="M16,36.027c0-0.552-0.447-1-1-1h-2h-1c-0.553,0-1,0.448-1,1s0.447,1,1,1h1h2
		C15.553,37.027,16,36.579,16,36.027z"/>
	<path style="fill:#F7E6A1;" d="M17.51,27.661l-2.599-1.5c-0.478-0.277-1.09-0.113-1.366,0.366c-0.276,0.479-0.112,1.09,0.366,1.366
		l2.599,1.5c0.157,0.091,0.329,0.134,0.499,0.134c0.346,0,0.682-0.179,0.867-0.5C18.152,28.548,17.988,27.937,17.51,27.661z"/>
	<path style="fill:#F7E6A1;" d="M46.089,44.161l-2.599-1.5c-0.478-0.277-1.091-0.113-1.366,0.366
		c-0.276,0.479-0.112,1.09,0.366,1.366l2.599,1.5c0.157,0.091,0.329,0.134,0.499,0.134c0.346,0,0.682-0.179,0.867-0.5
		C46.731,45.048,46.567,44.437,46.089,44.161z"/>
	<path style="fill:#F7E6A1;" d="M39.5,19.572c-0.478-0.276-1.09-0.112-1.366,0.366l-1.5,2.598c-0.276,0.479-0.112,1.09,0.366,1.366
		c0.157,0.091,0.329,0.134,0.499,0.134c0.346,0,0.682-0.179,0.867-0.5l1.5-2.598C40.143,20.46,39.979,19.849,39.5,19.572z"/>
	<path style="fill:#F7E6A1;" d="M23,48.151c-0.478-0.276-1.09-0.113-1.366,0.366l-1.5,2.598c-0.276,0.479-0.112,1.09,0.366,1.366
		c0.157,0.091,0.329,0.134,0.499,0.134c0.346,0,0.682-0.179,0.867-0.5l0.499-0.865c0,0,0.001-0.001,0.001-0.001l1-1.732
		C23.643,49.039,23.479,48.427,23,48.151z"/>
	<path style="fill:#F7E6A1;" d="M21.866,19.938c-0.277-0.479-0.89-0.642-1.366-0.366c-0.479,0.276-0.643,0.888-0.366,1.366
		l1.5,2.598c0.186,0.321,0.521,0.5,0.867,0.5c0.17,0,0.342-0.043,0.499-0.134c0.479-0.276,0.643-0.888,0.366-1.366L21.866,19.938z"
		/>
	<path style="fill:#F7E6A1;" d="M38.366,48.517c-0.277-0.479-0.89-0.642-1.366-0.366c-0.479,0.276-0.643,0.888-0.366,1.366
		l1.5,2.598c0.186,0.321,0.521,0.5,0.867,0.5c0.17,0,0.342-0.043,0.499-0.134c0.479-0.276,0.643-0.888,0.366-1.366L38.366,48.517z"
		/>
	<path style="fill:#F7E6A1;" d="M42.991,29.527c0.17,0,0.342-0.043,0.499-0.134l2.599-1.5c0.479-0.276,0.643-0.888,0.366-1.366
		c-0.276-0.479-0.89-0.643-1.366-0.366l-2.599,1.5c-0.479,0.276-0.643,0.888-0.366,1.366C42.31,29.348,42.646,29.527,42.991,29.527z
		"/>
	<path style="fill:#F7E6A1;" d="M16.51,42.661l-2.599,1.5c-0.479,0.276-0.643,0.888-0.366,1.366c0.186,0.321,0.521,0.5,0.867,0.5
		c0.17,0,0.342-0.043,0.499-0.134l2.599-1.5c0.479-0.276,0.643-0.888,0.366-1.366C17.599,42.548,16.985,42.384,16.51,42.661z"/>
</g>
<path style="fill:#556080;" d="M30,14.027c-2.757,0-5-2.243-5-5s2.243-5,5-5s5,2.243,5,5S32.757,14.027,30,14.027z M30,6.027
	c-1.654,0-3,1.346-3,3s1.346,3,3,3s3-1.346,3-3S31.654,6.027,30,6.027z"/>
<path style="fill:#C7CAC7;" d="M40,0H20c-2.757,0-5,2.243-5,5s2.243,5,5,5h10c0.553,0,1-0.448,1-1s-0.447-1-1-1H20
	c-1.654,0-3-1.346-3-3s1.346-3,3-3h20c1.654,0,3,1.346,3,3s-1.346,3-3,3h-5.108C34.961,8.332,35,8.675,35,9.027
	C35,9.36,34.964,9.685,34.902,10H40c2.757,0,5-2.243,5-5S42.757,0,40,0z"/>
<g>
</g>
<g>
</g>
<g>
</g>
<g>
</g>
<g>
</g>
<g>
</g>
<g>
</g>
<g>
</g>
<g>
</g>
<g>
</g>
<g>
</g>
<g>
</g>
<g>
</g>
<g>
</g>
<g>
</g>
</svg>
