<?xml version="1.0" encoding="iso-8859-1"?>
<!-- Generator: Adobe Illustrator 19.0.0, SVG Export Plug-In . SVG Version: 6.00 Build 0)  -->
<svg version="1.1" id="Capa_1" xmlns="http://www.w3.org/2000/svg" xmlns:xlink="http://www.w3.org/1999/xlink" x="0px" y="0px"
	 viewBox="0 0 57 57" style="enable-background:new 0 0 57 57;" xml:space="preserve">
<path style="fill:#5D563C;" d="M42.469,0.833c0.057,0.338-0.045,0.696-0.327,0.933C38.887,4.496,34.043,6,28.5,6
	c-5.133,0-10.223-1.574-13.615-4.21c-0.301-0.234-0.418-0.605-0.359-0.956H14.5V23h28V0.833H42.469z"/>
<path style="fill:#B5A885;" d="M32.682,55.485L32.682,55.485C33.857,56.464,35.337,57,36.865,57h8.101
	c3.608,0,6.533-2.925,6.533-6.533V25.682c0-0.361-0.25-0.669-0.601-0.75C44.696,23.503,44.5,1.246,44.5,1.246
	s-0.001-0.01-0.003-0.03c-0.181-1.404-2.106-1.672-2.7-0.388C39.843,5.048,34.13,15,28.5,15S17.156,5.048,15.204,0.829
	c-0.595-1.284-2.519-1.016-2.7,0.388c-0.002,0.019-0.003,0.03-0.003,0.03s-0.196,22.257-6.399,23.685
	C5.749,25.013,5.5,25.321,5.5,25.682v24.784C5.5,54.074,8.425,57,12.033,57h8.101c1.528,0,3.008-0.536,4.183-1.514l0,0
	C26.74,53.466,30.26,53.466,32.682,55.485z"/>
<rect x="8.5" y="34" style="fill:#5D563C;" width="14" height="14"/>
<path style="fill:#5D563C;" d="M47.486,48H34.5V34h14v12.986C48.5,47.546,48.046,48,47.486,48z"/>
<circle style="fill:#C7CAC7;" cx="15.5" cy="38" r="1"/>
<g>
	<path style="fill:#938564;" d="M16.207,20.293c-0.391-0.391-1.023-0.391-1.414,0L14,21.085l-0.793-0.793
		c-0.391-0.391-1.023-0.391-1.414,0s-0.391,1.023,0,1.414l0.793,0.793l-0.793,0.793c-0.391,0.391-0.391,1.023,0,1.414
		C11.988,24.902,12.244,25,12.5,25s0.512-0.098,0.707-0.293L14,23.914l0.793,0.793C14.988,24.902,15.244,25,15.5,25
		s0.512-0.098,0.707-0.293c0.391-0.391,0.391-1.023,0-1.414L15.414,22.5l0.793-0.793C16.597,21.316,16.597,20.683,16.207,20.293z"/>
	<path style="fill:#938564;" d="M23.207,20.293c-0.391-0.391-1.023-0.391-1.414,0L21,21.085l-0.793-0.793
		c-0.391-0.391-1.023-0.391-1.414,0s-0.391,1.023,0,1.414l0.793,0.793l-0.793,0.793c-0.391,0.391-0.391,1.023,0,1.414
		C18.988,24.902,19.244,25,19.5,25s0.512-0.098,0.707-0.293L21,23.914l0.793,0.793C21.988,24.902,22.244,25,22.5,25
		s0.512-0.098,0.707-0.293c0.391-0.391,0.391-1.023,0-1.414L22.414,22.5l0.793-0.793C23.597,21.316,23.597,20.683,23.207,20.293z"/>
	<path style="fill:#938564;" d="M38.207,20.293c-0.391-0.391-1.023-0.391-1.414,0L36,21.085l-0.793-0.793
		c-0.391-0.391-1.023-0.391-1.414,0s-0.391,1.023,0,1.414l0.793,0.793l-0.793,0.793c-0.391,0.391-0.391,1.023,0,1.414
		C33.988,24.902,34.244,25,34.5,25s0.512-0.098,0.707-0.293L36,23.914l0.793,0.793C36.988,24.902,37.244,25,37.5,25
		s0.512-0.098,0.707-0.293c0.391-0.391,0.391-1.023,0-1.414L37.414,22.5l0.793-0.793C38.597,21.316,38.597,20.683,38.207,20.293z"/>
	<path style="fill:#938564;" d="M44.414,22.5l0.793-0.793c0.391-0.391,0.391-1.023,0-1.414s-1.023-0.391-1.414,0L43,21.085
		l-0.793-0.793c-0.391-0.391-1.023-0.391-1.414,0s-0.391,1.023,0,1.414l0.793,0.793l-0.793,0.793c-0.391,0.391-0.391,1.023,0,1.414
		C40.988,24.902,41.244,25,41.5,25s0.512-0.098,0.707-0.293L43,23.914l0.793,0.793C43.988,24.902,44.244,25,44.5,25
		s0.512-0.098,0.707-0.293c0.391-0.391,0.391-1.023,0-1.414L44.414,22.5z"/>
</g>
<path style="fill:#938564;" d="M10.272,19h36.455c-0.194-0.64-0.371-1.31-0.533-2H10.805C10.644,17.69,10.466,18.359,10.272,19z"/>
<rect x="5.5" y="26" style="fill:#938564;" width="46" height="2"/>
<path style="fill:#DDD3BA;" d="M25.5,14.134v40.585c1.881-0.975,4.119-0.975,6,0V14.134C30.512,14.678,29.505,15,28.5,15
	S26.488,14.678,25.5,14.134z"/>
<rect x="25.5" y="22" style="fill:#FFFFFF;" width="6" height="2"/>
<rect x="25.5" y="18" style="fill:#FFFFFF;" width="6" height="2"/>
<rect x="25.5" y="26" style="fill:#FFFFFF;" width="6" height="2"/>
<rect x="25.5" y="30" style="fill:#FFFFFF;" width="6" height="2"/>
<rect x="25.5" y="34" style="fill:#FFFFFF;" width="6" height="2"/>
<rect x="25.5" y="38" style="fill:#FFFFFF;" width="6" height="2"/>
<rect x="25.5" y="42" style="fill:#FFFFFF;" width="6" height="2"/>
<rect x="25.5" y="46" style="fill:#FFFFFF;" width="6" height="2"/>
<rect x="25.5" y="50" style="fill:#FFFFFF;" width="6" height="2"/>
<polygon style="fill:#938564;" points="22.5,35.797 15.504,41.688 8.5,35.703 8.5,38.334 14.8,43.716 15.535,44.276 22.5,38.412 "/>
<circle style="fill:#C7CAC7;" cx="41.5" cy="38" r="1"/>
<polygon style="fill:#938564;" points="48.5,35.797 41.504,41.688 34.5,35.703 34.5,38.334 40.8,43.716 41.535,44.276 48.5,38.412 
	"/>
<g>
</g>
<g>
</g>
<g>
</g>
<g>
</g>
<g>
</g>
<g>
</g>
<g>
</g>
<g>
</g>
<g>
</g>
<g>
</g>
<g>
</g>
<g>
</g>
<g>
</g>
<g>
</g>
<g>
</g>
</svg>
