<?xml version="1.0" encoding="iso-8859-1"?>
<!-- Generator: Adobe Illustrator 19.0.0, SVG Export Plug-In . SVG Version: 6.00 Build 0)  -->
<svg version="1.1" id="Capa_1" xmlns="http://www.w3.org/2000/svg" xmlns:xlink="http://www.w3.org/1999/xlink" x="0px" y="0px"
	 viewBox="0 0 59.542 59.542" style="enable-background:new 0 0 59.542 59.542;" xml:space="preserve">
<filter id="dropshadow" height="130%">
  <feGaussianBlur in="SourceAlpha" stdDeviation="0"/> <!-- stdDeviation is how much to blur -->
  <feOffset dx="2" dy="2" result="offsetblur"/> <!-- how much to offset -->
  <feComponentTransfer>
    <feFuncA type="linear" slope="1"/> <!-- slope is the opacity of the shadow -->
  </feComponentTransfer>
  <feMerge> 
    <feMergeNode/> <!-- this contains the offset blurred image -->
    <feMergeNode in="SourceGraphic"/> <!-- this contains the element that the filter is applied to -->
  </feMerge>
</filter>

<g style="filter:url(#dropshadow);"><path style="fill:#BFA380;" d="M55.617,52.706L8.392,6.895C7.859,6.381,7.129,6.212,6.469,6.384
	C6.424,6.301,6.381,6.217,6.312,6.147L1.707,1.543c-0.391-0.391-1.023-0.391-1.414,0s-0.391,1.023,0,1.414l4.604,4.604
	c0.055,0.055,0.124,0.085,0.188,0.125C4.861,8.376,5.019,9.159,5.563,9.724l45.811,47.225c1.172,1.172,3.071,1.172,4.243,0
	S56.788,53.877,55.617,52.706z"/>
<polygon style="fill:#556080;" points="43.01,48.342 47.01,44.342 41.272,38.766 37.434,42.604 "/>
<path style="fill:none;stroke:#C7CAC7;stroke-width:2;stroke-linecap:round;stroke-miterlimit:10;" d="M53,33.292h-1
	c1.104,1.104,1.629,5.129,5.146,1.613c1.503-1.503,1.983-3.702,0.48-5.205L50,22.074l-5.064-4.941C42.419,14.677,41,11.309,41,7.792
	v0c0-2.485,2.015-4.5,4.5-4.5h0c2.485,0,4.5,2.015,4.5,4.5v1c0,0.178-0.01,0.353-0.03,0.525c-0.326,2.81-3.43,4.405-6.044,3.324
	L26,7.292L12.134,2.958c-1.414-0.442-2.888-0.667-4.37-0.667h0C4.029,2.292,1,5.32,1,9.056v0c0,0.821,0.099,1.639,0.294,2.437l0,0
	c0.461,1.884,1.448,3.598,2.845,4.944l30.84,29.689"/>
<path style="fill:#DD352E;" d="M57.707,25.584c-0.391-0.391-1.023-0.391-1.414,0L56,25.877v-2.586c0-0.552-0.448-1-1-1s-1,0.448-1,1
	v3h-3c-0.552,0-1,0.448-1,1s0.448,1,1,1h2.586l-0.293,0.293c-0.391,0.391-0.391,1.023,0,1.414c0.195,0.195,0.451,0.293,0.707,0.293
	s0.512-0.098,0.707-0.293l3-3C58.098,26.608,58.098,25.975,57.707,25.584z"/>
<path style="fill:#556080;" d="M9,24.291c-0.256,0-0.512-0.098-0.707-0.293c-0.391-0.391-0.391-1.023,0-1.414l4.902-4.901
	c0.391-0.391,1.023-0.391,1.414,0s0.391,1.023,0,1.414l-4.902,4.901C9.512,24.194,9.256,24.291,9,24.291z"/>
<path style="fill:#556080;" d="M14.813,30.104c-0.256,0-0.512-0.098-0.707-0.293c-0.391-0.391-0.391-1.023,0-1.414l4.845-4.845
	c0.391-0.391,1.023-0.391,1.414,0s0.391,1.023,0,1.414l-4.845,4.845C15.324,30.006,15.068,30.104,14.813,30.104z"/>
<path style="fill:#556080;" d="M20.277,36.083c-0.256,0-0.512-0.098-0.707-0.293c-0.391-0.391-0.391-1.023,0-1.414l4.845-4.845
	c0.391-0.391,1.023-0.391,1.414,0s0.391,1.023,0,1.414l-4.845,4.845C20.789,35.986,20.533,36.083,20.277,36.083z"/>
<circle style="fill:#6C797A;" cx="35.818" cy="51.292" r="7"/>
<path style="fill:#E0E1E2;" d="M35.817,55.289c-1.024,0-2.048-0.39-2.828-1.169l1.414-1.414c0.778,0.779,2.048,0.779,2.829,0
	c0.78-0.78,0.78-2.049,0-2.829l1.414-1.414c1.56,1.56,1.56,4.097,0,5.657C37.866,54.9,36.842,55.289,35.817,55.289z"/>
<path style="fill:#556080;" d="M33,50.292c-0.117,0-0.235-0.021-0.351-0.064l-7.028-2.636l-0.672,2.016
	c-0.174,0.523-0.739,0.809-1.265,0.632c-0.524-0.175-0.807-0.741-0.632-1.265l1.328-3.984l8.972,3.364
	c0.517,0.194,0.779,0.771,0.585,1.288C33.786,50.044,33.405,50.292,33,50.292z"/>
<g>
</g>
<g>
</g>
<g>
</g>
<g>
</g>
<g>
</g>
<g>
</g>
<g>
</g>
<g>
</g>
<g>
</g>
<g>
</g>
<g>
</g>
<g>
</g>
<g>
</g>
<g>
</g>
<g>
</g>
</g>
</svg>
