<?xml version="1.0" encoding="iso-8859-1"?>
<!-- Generator: Adobe Illustrator 19.0.0, SVG Export Plug-In . SVG Version: 6.00 Build 0)  -->
<svg version="1.1" id="Capa_1" xmlns="http://www.w3.org/2000/svg" xmlns:xlink="http://www.w3.org/1999/xlink" x="0px" y="0px"
	 viewBox="0 0 57.907 57.907" style="enable-background:new 0 0 57.907 57.907;" xml:space="preserve">
<g>
	<path style="fill:#E3942D;" d="M12.738,3.175L8.756,7.158C8.309,7.604,8.292,8.322,8.717,8.789l2.571,2.829l5.657-5.657
		L14.45,3.216C13.995,2.716,13.216,2.698,12.738,3.175z"/>
	<path style="fill:#E3942D;" d="M42.294,30.11l-5.806-2.679c-3.095-1.609-4.603-3.521-5.707-6.83l-0.401-1.204l-0.481-0.84
		c-2.19,1.842-4.198,3.615-5.991,5.322l0.816,1.174l0.401,1.204c1.103,3.31,2.612,5.221,5.707,6.831l5.806,2.679
		c9.697,5.358,8.593,9.793,8.593,9.793c0.344,5.176,3.14,5.388,6.014,7.145c0.798,0.488,1.502,1.136,1.907,1.993
		c0.853,1.803,3.365,1.776,4.072-0.089c1.207-3.183,1.118-7.251-2.752-11.121l-2.688-4.481
		C49.379,35.001,46.438,32.265,42.294,30.11z"/>
</g>
<path style="fill:#E0E1E2;" d="M20.481,2.426L5.315,17.591c0.229,3.398,2.198,7.223,4.559,9.583
	c1.879,1.879,5.486,4.405,8.084,4.926c2.528-5.097,7.356-9.159,15.948-16.25c1.562-1.562-1.108-6.765-4.232-9.889
	S22.043,0.864,20.481,2.426z"/>
<path style="fill:#C7CAC7;" d="M13.886,30.267l5.735-5.853l-1.429-1.399l-5.994,6.117C12.739,29.529,13.303,29.911,13.886,30.267z"
	/>
<path style="fill:#C7CAC7;" d="M9.849,27.147l3.819-4.468l-1.521-1.3l-3.611,4.224C8.955,26.16,9.391,26.686,9.849,27.147z"/>
<g>
	<path style="fill:#888B7A;" d="M17.958,32.1c-2.598-0.521-6.205-3.047-8.084-4.926c-2.36-2.36-4.329-6.186-4.559-9.583
		l-0.391,0.391l-4.869,2.087c-0.044,0.019-0.067,0.065-0.048,0.109c0.159,0.362,1.931,3.851,1.931,3.851H4.7
		c0.11,0,0.195,0.096,0.181,0.206l-0.503,4.023c0.638,0.936,1.301,1.794,1.96,2.453c3.124,3.124,10.596,6.354,10.596,6.354
		c-0.082-1.787,0.324-3.506,1.179-5.256C18.062,31.906,18.007,32.002,17.958,32.1z"/>
</g>
<g>
</g>
<g>
</g>
<g>
</g>
<g>
</g>
<g>
</g>
<g>
</g>
<g>
</g>
<g>
</g>
<g>
</g>
<g>
</g>
<g>
</g>
<g>
</g>
<g>
</g>
<g>
</g>
<g>
</g>
</svg>
