<?xml version="1.0" encoding="iso-8859-1"?>
<!-- Generator: Adobe Illustrator 19.0.0, SVG Export Plug-In . SVG Version: 6.00 Build 0)  -->
<svg version="1.1" id="Layer_1" xmlns="http://www.w3.org/2000/svg" xmlns:xlink="http://www.w3.org/1999/xlink" x="0px" y="0px"
	 viewBox="0 0 512.008 512.008" style="enable-background:new 0 0 512.008 512.008;" xml:space="preserve">
<g transform="translate(0 -1)">
	<path style="fill:#C03A2B;" d="M372.69,168.936c-4.529-7.759-24.867-26.394-35.566-35.249l-6.585-67.046
		C325.542,29.222,293.313,1,255.557,1s-69.985,28.222-74.982,65.642l-6.638,67.469c-10.575,9.022-30.287,27.41-34.622,34.825
		c-0.079,0.512-15.598,25.838-7.345,273.443c16.675,22.237,42.831,35.31,70.621,35.31h106.823c27.789,0,53.954-13.074,70.621-35.31
		C388.289,194.774,372.77,169.448,372.69,168.936"/>
	<g>
		<path style="fill:#9B2B23;" d="M220.247,274.659c-4.873,0-8.828-3.955-8.828-8.828V195.21c0-4.873,3.955-8.828,8.828-8.828
			c4.873,0,8.828,3.955,8.828,8.828v70.621C229.074,270.704,225.12,274.659,220.247,274.659"/>
		<path style="fill:#9B2B23;" d="M290.867,274.659c-4.873,0-8.828-3.955-8.828-8.828V195.21c0-4.873,3.955-8.828,8.828-8.828
			s8.828,3.955,8.828,8.828v70.621C299.695,270.704,295.74,274.659,290.867,274.659"/>
		<path style="fill:#9B2B23;" d="M211.419,336.452c0,34.127-19.765,61.793-44.138,61.793v35.31h88.276v-97.103H211.419z"/>
		<path style="fill:#9B2B23;" d="M299.695,336.452c0,34.127,19.765,61.793,44.138,61.793v35.31h-88.276v-97.103H299.695z"/>
		<path style="fill:#9B2B23;" d="M139.319,168.935c-8.563,8.775-15.281,17.452-15.281,17.452
			C58.935,287.904,71.073,513.008,71.073,513.008h35.31l25.591-61.793C123.721,203.592,139.24,169.438,139.319,168.935"/>
		<path style="fill:#9B2B23;" d="M372.69,168.935c8.563,8.775,15.281,17.452,15.281,17.452
			c65.103,101.517,52.966,326.621,52.966,326.621h-35.31l-25.591-61.793C388.289,203.592,372.77,169.438,372.69,168.935"/>
		<path style="fill:#9B2B23;" d="M309.418,477.783H202.595c-19.359,0-37.853-6.471-52.966-17.832v44.226
			c0,4.873,3.946,8.828,8.828,8.828h194.207c4.873,0,8.828-3.955,8.828-8.828v-43.564
			C346.529,471.56,328.397,477.783,309.418,477.783"/>
	</g>
	<g>
		<path style="fill:#C03A2B;" d="M387.971,468.866v1.501l17.655,42.637h35.31c0,0,0.715-17.028,0.865-44.138H387.971z"/>
		<path style="fill:#C03A2B;" d="M124.007,468.866v1.501l-17.655,42.637h-35.31c0,0-0.715-17.028-0.865-44.138H124.007z"/>
	</g>
	<path style="fill:#9B2B23;" d="M208.68,123.067l6.903-51.756c2.666-20.03,19.756-34.993,39.971-34.993
		c20.215,0,37.305,14.963,39.98,34.993l6.903,51.756c3.222,24.179-15.59,45.665-39.98,45.665H248.66
		C224.27,168.732,205.458,147.246,208.68,123.067"/>
</g>
<g>
</g>
<g>
</g>
<g>
</g>
<g>
</g>
<g>
</g>
<g>
</g>
<g>
</g>
<g>
</g>
<g>
</g>
<g>
</g>
<g>
</g>
<g>
</g>
<g>
</g>
<g>
</g>
<g>
</g>
</svg>
