<?xml version="1.0" encoding="iso-8859-1"?>
<!-- Generator: Adobe Illustrator 19.0.0, SVG Export Plug-In . SVG Version: 6.00 Build 0)  -->
<svg version="1.1" id="Capa_1" xmlns="http://www.w3.org/2000/svg" xmlns:xlink="http://www.w3.org/1999/xlink" x="0px" y="0px"
	 viewBox="0 0 56.868 56.868" style="enable-background:new 0 0 56.868 56.868;" xml:space="preserve">
<path style="fill:#E0E1E2;" d="M33.465,27.555l-7.071,7.071l-20.55-20.55l0,0C2.702,10.935,1.09,6.577,1.431,2.147l0.161-2.098
	c0.003-0.045,0.058-0.066,0.09-0.033l2.807,2.807c1.349,1.349,3.039,2.306,4.89,2.769l0,0c1.851,0.463,3.541,1.42,4.89,2.769
	L33.465,27.555z"/>
<path style="fill:#38454F;" d="M39.034,29.057L27.895,40.196c-0.439,0.439-1.15,0.439-1.589,0l-1.946-1.946
	c-0.439-0.439-0.439-1.15,0-1.589l11.139-11.139c0.439-0.439,1.15-0.439,1.589,0l1.946,1.946
	C39.473,27.907,39.473,28.618,39.034,29.057z"/>
<path style="fill:#FFFFFF;" d="M15.787,19.363c-0.256,0-0.512-0.098-0.707-0.293l-4.95-4.95c-0.391-0.391-0.391-1.023,0-1.414
	s1.023-0.391,1.414,0l4.95,4.95c0.391,0.391,0.391,1.023,0,1.414C16.299,19.265,16.043,19.363,15.787,19.363z"/>
<path style="fill:#38454F;" d="M55.377,47.306l-9.457,9.457c-0.14,0.14-0.366,0.14-0.505,0l-3.48-3.48
	c-0.14-0.14-0.14-0.366,0-0.505l9.457-9.457c0.14-0.14,0.366-0.14,0.505,0l3.48,3.48C55.517,46.94,55.517,47.166,55.377,47.306z"/>
<rect x="30.708" y="36.282" transform="matrix(0.7071 0.7071 -0.7071 0.7071 40.9416 -16.2781)" style="fill:#556080;" width="18.825" height="10"/>
<polygon style="fill:#38454F;" points="31.523,39.756 32.938,41.171 40.108,34.198 38.693,32.784 "/>
<polygon style="fill:#38454F;" points="34.352,42.585 35.766,43.999 42.936,37.027 41.522,35.612 "/>
<polygon style="fill:#38454F;" points="37.18,45.413 38.595,46.827 45.764,39.855 44.35,38.44 "/>
<polygon style="fill:#38454F;" points="40.009,48.242 41.423,49.656 48.593,42.683 47.179,41.269 "/>
<g>
</g>
<g>
</g>
<g>
</g>
<g>
</g>
<g>
</g>
<g>
</g>
<g>
</g>
<g>
</g>
<g>
</g>
<g>
</g>
<g>
</g>
<g>
</g>
<g>
</g>
<g>
</g>
<g>
</g>
</svg>
