<?xml version="1.0" encoding="iso-8859-1"?>
<!-- Generator: Adobe Illustrator 19.0.0, SVG Export Plug-In . SVG Version: 6.00 Build 0)  -->
<svg version="1.1" id="Capa_1" xmlns="http://www.w3.org/2000/svg" xmlns:xlink="http://www.w3.org/1999/xlink" x="0px" y="0px"
	 viewBox="0 0 58.74 58.74" style="enable-background:new 0 0 58.74 58.74;" xml:space="preserve">
<path style="fill:#C7CAC7;" d="M32.267,12.728l9.192,9.192l6.364-6.364L32.267,0l0,0C28.752,3.515,28.752,9.213,32.267,12.728z"/>
<path style="fill:#C7CAC7;" d="M22.368,41.012l2.897-2.897l-8.195-2.525c-0.102-0.036-0.202,0.053-0.192,0.16
	c0.569,6.001-7.091-0.132-8.615-1.264c-0.144-0.107-0.321-0.162-0.501-0.157l-4.749,0.128c-0.742-0.15-1.481,0.268-1.735,0.981
	l-0.801,2.254c-0.249,0.701,0.045,1.479,0.695,1.84l4.191,2.327l15.046,5.136C20.097,44.875,20.744,42.636,22.368,41.012z"/>
<path style="fill:#DD352E;" d="M56.309,26.87L32.267,50.912c-2.722,2.722-7.177,2.722-9.899,0l0,0c-2.722-2.722-2.722-7.177,0-9.899
	l24.042-24.042c2.722-2.722,7.177-2.722,9.899,0l0,0C59.031,19.693,59.031,24.148,56.309,26.87z"/>
<path style="fill:#FFFFFF;" d="M39.338,12.314c-0.256,0-0.512-0.098-0.707-0.293l-4.242-4.243c-0.391-0.391-0.391-1.023,0-1.414
	s1.023-0.391,1.414,0l4.242,4.243c0.391,0.391,0.391,1.023,0,1.414C39.85,12.216,39.594,12.314,39.338,12.314z"/>
<path style="fill:#E6E6E6;" d="M50.304,24.24l1.793-1.793c0.391-0.391,0.391-1.023,0-1.414s-1.023-0.391-1.414,0l-1.793,1.793
	l-1.793-1.793c-0.391-0.391-1.023-0.391-1.414,0s-0.391,1.023,0,1.414l1.793,1.793l-1.793,1.793c-0.391,0.391-0.391,1.023,0,1.414
	c0.195,0.195,0.451,0.293,0.707,0.293s0.512-0.098,0.707-0.293l1.793-1.793l1.793,1.793c0.195,0.195,0.451,0.293,0.707,0.293
	s0.512-0.098,0.707-0.293c0.391-0.391,0.391-1.023,0-1.414L50.304,24.24z"/>
<path style="fill:#B02721;" d="M27.317,49.954c-1.074,0-2.078-0.413-2.827-1.163c-0.391-0.391-0.391-1.024,0-1.415
	c0.391-0.39,1.023-0.39,1.414,0c0.746,0.745,2.084,0.745,2.828,0l12.146-12.147c0.391-0.391,1.023-0.391,1.414,0
	s0.391,1.023,0,1.414L30.146,48.79C29.396,49.54,28.392,49.954,27.317,49.954z"/>
<path style="fill:#C7CAC7;" d="M30.853,32.527l0.354-0.354l5.27-5.27l-2.516-5.31l-4.208,2.701l-2.351-5.145l-4.208,2.701
	l-2.351-5.145l-4.208,2.701l-2.351-5.145l-4.208,2.701L7.802,11.99c-0.029-0.064-0.121-0.061-0.146,0.005l-2.378,6.381
	c-0.964,2.588,0.352,5.467,2.939,6.431C8.218,24.807,30.681,32.699,30.853,32.527z"/>
<path style="fill:#FFFFFF;" d="M13.564,42.774c-0.123,0-0.248-0.023-0.369-0.071l-4.368-1.735c-0.514-0.204-0.764-0.785-0.561-1.298
	c0.205-0.513,0.787-0.765,1.299-0.56l4.368,1.735c0.514,0.204,0.764,0.785,0.561,1.298C14.338,42.535,13.962,42.774,13.564,42.774z"
	/>
<path style="fill:none;stroke:#C7CAC7;stroke-width:2;stroke-linecap:round;stroke-miterlimit:10;" d="M21.813,50.277
	c-0.305,0.174-0.599,0.374-0.859,0.634c-1.562,1.562-1.562,4.095,0,5.657c1.562,1.562,4.095,1.562,5.657,0
	c0.987-0.987,1.347-2.361,1.086-3.633"/>
<g>
</g>
<g>
</g>
<g>
</g>
<g>
</g>
<g>
</g>
<g>
</g>
<g>
</g>
<g>
</g>
<g>
</g>
<g>
</g>
<g>
</g>
<g>
</g>
<g>
</g>
<g>
</g>
<g>
</g>
</svg>
