<?xml version="1.0" encoding="iso-8859-1"?>
<!-- Generator: Adobe Illustrator 19.0.0, SVG Export Plug-In . SVG Version: 6.00 Build 0)  -->
<svg version="1.1" id="Layer_1" xmlns="http://www.w3.org/2000/svg" xmlns:xlink="http://www.w3.org/1999/xlink" x="0px" y="0px"
	 viewBox="0 0 512 512" style="enable-background:new 0 0 512 512;" xml:space="preserve">
<g>
	<path style="fill:#4482C3;" d="M97.103,88.275L0,211.861l61.793,44.138l61.82-32.38v288.38h264.801V223.628l61.793,32.371
		L512,211.861L414.897,88.275c0,0,3.681-19.129-79.448-44.138l-26.465-26.465l-35.672,77.277c-6.806,14.751-27.772,14.751-34.578,0
		l-35.672-77.294l-26.483,26.483C93.449,69.146,97.13,88.275,97.13,88.275H97.103z"/>
	<path style="fill:#F0C419;" d="M344.276,255.999c0,48.755-39.521,88.276-88.276,88.276s-88.276-39.521-88.276-88.276
		s39.521-88.276,88.276-88.276S344.276,207.244,344.276,255.999"/>
	<g>
		<path style="fill:#F29C1F;" d="M229.517,229.516c0,4.873-3.955,8.828-8.828,8.828c-4.873,0-8.828-3.955-8.828-8.828
			c0-4.873,3.955-8.828,8.828-8.828C225.562,220.689,229.517,224.644,229.517,229.516"/>
		<path style="fill:#F29C1F;" d="M300.138,229.516c0,4.873-3.955,8.828-8.828,8.828c-4.873,0-8.828-3.955-8.828-8.828
			c0-4.873,3.955-8.828,8.828-8.828C296.183,220.689,300.138,224.644,300.138,229.516"/>
	</g>
	<path style="fill:#1E4460;" d="M205.827,12.104l-2.763,5.553l35.663,77.286c6.815,14.751,27.78,14.751,34.586,0l35.655-77.286
		l-2.79-5.57C302.48,4.68,294.906,0.001,286.626,0.001h-61.237C217.099,0.001,209.525,4.688,205.827,12.104"/>
	<path style="fill:#F29C1F;" d="M256,308.965c-16.508,0-32.018-6.426-43.688-18.097c-3.452-3.452-3.452-9.039,0-12.482
		c3.443-3.452,9.031-3.452,12.482,0c8.333,8.333,19.421,12.924,31.206,12.924s22.872-4.59,31.206-12.924
		c3.452-3.452,9.039-3.452,12.482,0c3.452,3.443,3.452,9.031,0,12.482C288.018,302.538,272.508,308.965,256,308.965"/>
</g>
<g>
</g>
<g>
</g>
<g>
</g>
<g>
</g>
<g>
</g>
<g>
</g>
<g>
</g>
<g>
</g>
<g>
</g>
<g>
</g>
<g>
</g>
<g>
</g>
<g>
</g>
<g>
</g>
<g>
</g>
</svg>
