<svg width="175" height="200" viewBox="0 0 175 200" fill="none" xmlns="http://www.w3.org/2000/svg">
<path d="M69.4 83.8999C63.7 83.8999 59.2 88.8999 59.2 94.9999C59.2 101.1 63.8 106.1 69.4 106.1C75.1 106.1 79.6 101.1 79.6 94.9999C79.7 88.8999 75.1 83.8999 69.4 83.8999ZM105.9 83.8999C100.2 83.8999 95.7 88.8999 95.7 94.9999C95.7 101.1 100.3 106.1 105.9 106.1C111.6 106.1 116.1 101.1 116.1 94.9999C116.1 88.8999 111.6 83.8999 105.9 83.8999Z" fill="white"/>
<path d="M154.5 0H20.5C9.2 0 0 9.2 0 20.6V155.8C0 167.2 9.2 176.4 20.5 176.4H133.9L128.6 157.9L141.4 169.8L153.5 181L175 200V20.6C175 9.2 165.8 0 154.5 0ZM115.9 130.6C115.9 130.6 112.3 126.3 109.3 122.5C122.4 118.8 127.4 110.6 127.4 110.6C123.3 113.3 119.4 115.2 115.9 116.5C110.9 118.6 106.1 120 101.4 120.8C91.8 122.6 83 122.1 75.5 120.7C69.8 119.6 64.9 118 60.8 116.4C58.5 115.5 56 114.4 53.5 113C53.2 112.8 52.9 112.7 52.6 112.5C52.4 112.4 52.3 112.3 52.2 112.2C50.4 111.2 49.4 110.5 49.4 110.5C49.4 110.5 54.2 118.5 66.9 122.3C63.9 126.1 60.2 130.6 60.2 130.6C38.1 129.9 29.7 115.4 29.7 115.4C29.7 83.2 44.1 57.1 44.1 57.1C58.5 46.3 72.2 46.6 72.2 46.6L73.2 47.8C55.2 53 46.9 60.9 46.9 60.9C46.9 60.9 49.1 59.7 52.8 58C63.5 53.3 72 52 75.5 51.7C76.1 51.6 76.6 51.5 77.2 51.5C83.3 50.7 90.2 50.5 97.4 51.3C106.9 52.4 117.1 55.2 127.5 60.9C127.5 60.9 119.6 53.4 102.6 48.2L104 46.6C104 46.6 117.7 46.3 132.1 57.1C132.1 57.1 146.5 83.2 146.5 115.4C146.5 115.4 138 129.9 115.9 130.6V130.6Z" fill="white"/>
</svg>
