<svg fill="none" height="128" viewBox="0 0 984 128" width="984" xmlns="http://www.w3.org/2000/svg"><g fill="#cbd5e0"><path d="m39.202 15.3521c13.568 0 24.5333 4.0533 32.896 12.1599l-11.648 13.6961c-5.9733-4.7787-12.3307-7.1681-19.072-7.1681-3.1573 0-5.5467.5547-7.168 1.664-1.6213 1.1094-2.432 2.688-2.432 4.736 0 1.536.4267 2.8161 1.28 3.8401.9387.9386 2.432 1.8346 4.48 2.688 2.1333.8533 5.5467 2.048 10.24 3.584 9.3867 2.9866 16.128 6.7413 20.224 11.264 4.1813 4.5226 6.272 10.7093 6.272 18.56 0 5.7173-1.536 10.7946-4.608 15.232-2.9867 4.352-7.296 7.7649-12.928 10.2399s-12.288 3.712-19.968 3.712c-7.8507 0-14.7627-1.237-20.736-3.712s-11.00801-5.717-15.104007-9.7279l12.928007-14.2081c6.7413 5.8027 14.0373 8.7041 21.888 8.7041 3.6693 0 6.4427-.7254 8.32-2.1761 1.8773-1.536 2.816-3.4986 2.816-5.888 0-1.792-.4267-3.2853-1.28-4.4799-.768-1.1947-2.176-2.304-4.224-3.328s-5.0347-2.1334-8.96-3.3281c-10.3253-3.2426-17.536-7.1253-21.632-11.6479-4.09601-4.608-6.14401-10.3254-6.14401-17.152 0-5.5467 1.49334-10.3681 4.48-14.4641 2.98671-4.096 7.08271-7.2533 12.28801-9.472 5.2907-2.2186 11.2213-3.3279 17.792-3.3279z"/><path d="m146.482 17.912-2.688 19.712h-20.224v69.376h-26.368v-69.376h-21.632v-19.712z"/><path d="m192.904 107-3.456-17.2799h-21.12l-3.328 17.2799h-27.52l25.984-89.088h31.488l25.856 89.088zm-20.864-35.7119h13.696l-6.912-34.9441z"/><path d="m283.982 17.912-2.688 19.712h-20.224v69.376h-26.368v-69.376h-21.632v-19.712z"/><path d="m348.555 17.912-2.688 18.304h-29.44v16.6401h25.856v17.792h-25.856v17.92h31.488v18.4319h-57.856v-89.088z"/><path d="m431.118 17.912c14.336 0 25.813 3.2 34.432 9.6 8.619 6.3147 12.928 17.8347 12.928 34.5601 0 16.4693-4.139 28.0746-12.416 34.816-8.277 6.7409-19.413 10.1119-33.408 10.1119h-30.08v-89.088zm-2.176 18.5601v51.9679h5.248c4.096 0 7.381-.8106 9.856-2.4319 2.475-1.6214 4.309-4.3094 5.504-8.064 1.195-3.84 1.792-9.1307 1.792-15.872 0-6.656-.64-11.8187-1.92-15.4881-1.195-3.7546-3.029-6.3573-5.504-7.808-2.475-1.5359-5.675-2.3039-9.6-2.3039z"/><path d="m546.32 17.912-2.688 18.304h-29.44v16.6401h25.856v17.792h-25.856v17.92h31.488v18.4319h-57.856v-89.088z"/><path d="m587.092 15.3521c13.568 0 24.533 4.0533 32.896 12.1599l-11.648 13.6961c-5.973-4.7787-12.331-7.1681-19.072-7.1681-3.157 0-5.547.5547-7.168 1.664-1.621 1.1094-2.432 2.688-2.432 4.736 0 1.536.427 2.8161 1.28 3.8401.939.9386 2.432 1.8346 4.48 2.688 2.133.8533 5.547 2.048 10.24 3.584 9.387 2.9866 16.128 6.7413 20.224 11.264 4.181 4.5226 6.272 10.7093 6.272 18.56 0 5.7173-1.536 10.7946-4.608 15.232-2.987 4.352-7.296 7.7649-12.928 10.2399s-12.288 3.712-19.968 3.712c-7.851 0-14.763-1.237-20.736-3.712s-11.008-5.717-15.104-9.7279l12.928-14.2081c6.741 5.8027 14.037 8.7041 21.888 8.7041 3.669 0 6.443-.7254 8.32-2.1761 1.877-1.536 2.816-3.4986 2.816-5.888 0-1.792-.427-3.2853-1.28-4.4799-.768-1.1947-2.176-2.304-4.224-3.328s-5.035-2.1334-8.96-3.3281c-10.325-3.2426-17.536-7.1253-21.632-11.6479-4.096-4.608-6.144-10.3254-6.144-17.152 0-5.5467 1.493-10.3681 4.48-14.4641s7.083-7.2533 12.288-9.472c5.291-2.2186 11.221-3.3279 17.792-3.3279z"/><path d="m657.192 17.912v89.088h-26.368v-89.088z"/><path d="m711.433 15.3521c6.4 0 12.245 1.0666 17.536 3.1999 5.376 2.1334 10.069 4.9494 14.08 8.4481l-12.8 13.3119c-3.157-2.304-6.016-3.9679-8.576-4.9919s-5.461-1.5361-8.704-1.5361c-6.229 0-11.008 2.3894-14.336 7.168-3.328 4.6934-4.992 11.8614-4.992 21.5041 0 7.2533.512 12.9706 1.536 17.1519 1.024 4.096 2.603 6.9974 4.736 8.704 2.219 1.7067 5.12 2.5601 8.704 2.5601 3.157 0 6.187-.7254 9.088-2.176v-16.256h-8.96l-2.432-17.792h36.736v44.672c-4.693 3.2429-10.069 5.7599-16.128 7.5519s-11.904 2.688-17.536 2.688c-14.592 0-25.387-3.968-32.384-11.9039-6.997-8.0214-10.496-19.7974-10.496-35.328 0-9.8134 1.92-18.2614 5.76-25.3441 3.84-7.0826 9.173-12.4586 16-16.128 6.827-3.6693 14.549-5.5039 23.168-5.5039z"/><path d="m826.644 107h-33.024l-19.456-65.0239.384 2.8159c.939 6.2294 1.664 11.9467 2.176 17.152.597 5.1201.896 10.9227.896 17.4081v27.6479h-23.296v-89.088h32.384l20.224 65.2801-.384-2.688c-1.024-5.888-1.835-11.3494-2.432-16.384-.512-5.12-.768-11.008-.768-17.664v-28.5441h23.296z"/><path d="m897.445 17.912-2.688 18.304h-29.44v16.6401h25.856v17.792h-25.856v17.92h31.488v18.4319h-57.856v-89.088z"/><path d="m937.931 75.2561h-4.864v31.7439h-26.368v-89.088h32.64c12.885 0 22.485 2.304 28.8 6.9121 6.315 4.5226 9.472 11.6479 9.472 21.376 0 5.5466-1.237 10.1546-3.712 13.824-2.475 3.6693-6.485 7.1253-12.032 10.368l21.76 36.6079h-29.184zm-4.864-17.664h6.912c3.584 0 6.272-.9387 8.064-2.816 1.792-1.8774 2.688-4.736 2.688-8.576 0-6.8267-4.011-10.24-12.032-10.24h-5.632z"/><path d="m358 62c0-8.8366 7.163-16 16-16 8.837 0 16 7.1634 16 16 0 8.8366-7.163 16-16 16-8.837 0-16-7.1634-16-16z"/></g></svg>